# xmcd CD database file
# Copyright (C) 1993-1998 Ti Kan
#
# Track frame offsets:
#	150
#	12825
#	29232
#	48877
#	62985
#	75052
#	87555
#	101087
#	117097
#	133907
#	149427
#	166377
#	184912
#
# Disc length: 2667 seconds
#
# Revision: 1
# Processed by: cddbd v1.4b41PL1 Copyright (c) Steve Scherf et al.
# Submitted via: CDmax 1.5
#
DISCID=b30a690d
DTITLE=Jeff Tarayla - The Wicked and The Free
DYEAR=1900
DGENRE=
TTITLE0=where you going now
TTITLE1=everybody falls down
TTITLE2=half
TTITLE3=delirious
TTITLE4=watch dog
TTITLE5=burned going down
TTITLE6=set you free
TTITLE7=everybody plays this game
TTITLE8=down this road
TTITLE9=miserable thing
TTITLE10=soft and low
TTITLE11=there goes baby
TTITLE12=into the blue
EXTD=
EXTT0=
EXTT1=
EXTT2=
EXTT3=
EXTT4=
EXTT5=
EXTT6=
EXTT7=
EXTT8=
EXTT9=
EXTT10=
EXTT11=
EXTT12=
PLAYORDER=
